<?xml version="1.0" encoding="UTF-8"?>
<svg width="1440px" height="286px" viewBox="0 0 1440 286" version="1.1" xmlns="http://www.w3.org/2000/svg" xmlns:xlink="http://www.w3.org/1999/xlink">
    <!-- Generator: Sketch 52.5 (67469) - http://www.bohemiancoding.com/sketch -->
    <title>Desktop HD</title>
    <desc>Created with Sketch.</desc>
    <g id="Desktop-HD" stroke="none" stroke-width="1" fill="none" fill-rule="evenodd">
        <rect fill="#FEFEFE" x="0" y="0" width="1440" height="286"></rect>
        <g id="Group" transform="translate(72.000000, 129.000000)">
            <rect id="Rectangle" stroke="#000000" stroke-width="3" x="1.5" y="1.5" width="1293" height="33" rx="8"></rect>
            <rect id="Rectangle" stroke="#979797" fill="#FFA100" x="108.5" y="0.5" width="107" height="35" rx="8"></rect>
            <rect id="Rectangle-Copy-8" stroke="#979797" fill="#000000" x="0.5" y="0.5" width="107" height="35" rx="8"></rect>
            <rect id="Rectangle-Copy-11" stroke="#979797" fill="#000000" x="1188.5" y="0.5" width="107" height="35" rx="8"></rect>
            <rect id="Rectangle-Copy" stroke="#979797" fill="#00FF2F" x="324.5" y="0.5" width="107" height="35" rx="8"></rect>
            <rect id="Rectangle-Copy-7" stroke="#979797" fill="#E4FF00" x="216.5" y="0.5" width="107" height="35" rx="8"></rect>
            <rect id="Rectangle-Copy-2" stroke="#979797" fill="#00FFF3" x="432.5" y="0.5" width="107" height="35" rx="8"></rect>
            <rect id="Rectangle-Copy-3" stroke="#979797" fill="#0B00FF" x="648.5" y="0.5" width="107" height="35" rx="8"></rect>
            <rect id="Rectangle-Copy-4" stroke="#979797" fill="#E600FE" x="756.5" y="0.5" width="107" height="35" rx="8"></rect>
            <rect id="Rectangle-Copy-5" stroke="#979797" fill="#FF00A3" x="864.5" y="0.5" width="107" height="35" rx="8"></rect>
            <rect id="Rectangle-Copy-6" stroke="#979797" fill="#FF0000" x="972.5" y="0.5" width="107" height="35" rx="8"></rect>
            <rect id="Rectangle-Copy-9" stroke="#979797" fill="#9B9B9B" x="1080.5" y="0.5" width="107" height="35" rx="8"></rect>
            <rect id="Rectangle-Copy-10" stroke="#979797" fill="#F9F9F9" x="540.5" y="0.5" width="107" height="35" rx="8"></rect>
        </g>
    </g>
</svg>